<svg xmlns="http://www.w3.org/2000/svg" xmlns:xlink="http://www.w3.org/1999/xlink" width="60" zoomAndPan="magnify" viewBox="0 0 45 44.999999" height="60" preserveAspectRatio="xMidYMid meet" version="1.0"><defs><g/><clipPath id="51388f0d2b"><path d="M 3.75 3.601562 L 41.25 3.601562 L 41.25 41.101562 L 3.75 41.101562 Z M 3.75 3.601562 " clip-rule="nonzero"/></clipPath></defs><g clip-path="url(#51388f0d2b)"><path fill="#d4af37" d="M 18.664062 5.074219 C 20.941406 3.605469 24.070312 3.601562 26.34375 5.078125 C 28.523438 6.382812 29.902344 8.84375 29.941406 11.378906 C 31.753906 11.394531 33.566406 11.367188 35.382812 11.386719 C 36.359375 11.3125 37.277344 12.097656 37.335938 13.078125 C 38.5625 21.667969 39.789062 30.265625 40.996094 38.859375 C 41.25 39.957031 40.292969 41.101562 39.160156 41.023438 C 28.050781 41.039062 16.9375 41.035156 5.820312 41.023438 C 4.695312 41.097656 3.746094 39.96875 3.984375 38.875 C 5.203125 30.28125 6.429688 21.6875 7.664062 13.097656 C 7.726562 12.125 8.617188 11.320312 9.597656 11.386719 C 11.417969 11.363281 13.238281 11.398438 15.058594 11.386719 C 15.105469 8.847656 16.476562 6.382812 18.664062 5.074219 Z M 18.734375 11.371094 C 21.246094 11.398438 23.757812 11.386719 26.269531 11.371094 C 26.167969 9.410156 24.527344 7.617188 22.5 7.679688 C 20.480469 7.617188 18.832031 9.410156 18.734375 11.371094 Z M 18.734375 11.371094 " fill-opacity="1" fill-rule="nonzero"/></g><g fill="#ffffff" fill-opacity="1"><g transform="translate(12.949218, 36.487406)"><g><path d="M 10.09375 0.375 C 7.90625 0.375 6.179688 -0.0078125 4.921875 -0.78125 C 3.660156 -1.550781 2.757812 -2.738281 2.21875 -4.34375 C 1.675781 -5.945312 1.40625 -8.070312 1.40625 -10.71875 C 1.40625 -13.320312 1.6875 -15.414062 2.25 -17 C 2.8125 -18.59375 3.710938 -19.757812 4.953125 -20.5 C 6.191406 -21.238281 7.851562 -21.609375 9.9375 -21.609375 C 11.875 -21.609375 13.960938 -21.390625 16.203125 -20.953125 L 17.328125 -20.734375 L 17.203125 -17.390625 C 14.796875 -17.660156 12.757812 -17.796875 11.09375 -17.796875 C 9.445312 -17.796875 8.25 -17.519531 7.5 -16.96875 C 6.75 -16.414062 6.285156 -15.664062 6.109375 -14.71875 C 5.929688 -13.78125 5.84375 -12.375 5.84375 -10.5 C 5.84375 -8.644531 5.96875 -7.21875 6.21875 -6.21875 C 6.46875 -5.21875 6.921875 -4.492188 7.578125 -4.046875 C 8.234375 -3.597656 9.207031 -3.375 10.5 -3.375 C 11.726562 -3.375 12.59375 -3.414062 13.09375 -3.5 L 13.09375 -7.625 L 11.15625 -7.625 L 11.15625 -11.375 L 17.328125 -11.375 L 17.328125 -0.34375 C 14.296875 0.132812 11.882812 0.375 10.09375 0.375 Z M 10.09375 0.375 "/></g></g></g></svg>