<svg xmlns="http://www.w3.org/2000/svg" xmlns:xlink="http://www.w3.org/1999/xlink" width="490" zoomAndPan="magnify" viewBox="0 0 367.5 142.499996" height="190" preserveAspectRatio="xMidYMid meet" version="1.0"><defs><g/><clipPath id="88ab8319e0"><path d="M 2.199219 2.011719 L 364.667969 2.011719 L 364.667969 140 L 2.199219 140 Z M 2.199219 2.011719 " clip-rule="nonzero"/></clipPath><clipPath id="cdf95d5456"><path d="M 7.027344 2.011719 L 359.460938 2.011719 C 362.125 2.011719 364.285156 4.175781 364.285156 6.839844 L 364.285156 135.132812 C 364.285156 137.800781 362.125 139.960938 359.460938 139.960938 L 7.027344 139.960938 C 4.359375 139.960938 2.199219 137.800781 2.199219 135.132812 L 2.199219 6.839844 C 2.199219 4.175781 4.359375 2.011719 7.027344 2.011719 Z M 7.027344 2.011719 " clip-rule="nonzero"/></clipPath></defs><g clip-path="url(#88ab8319e0)"><g clip-path="url(#cdf95d5456)"><path stroke-linecap="butt" transform="matrix(0.747378, 0, 0, 0.747378, 2.199725, 2.012794)" fill="none" stroke-linejoin="miter" d="M 6.45941 -0.00143867 L 478.019715 -0.00143867 C 481.584262 -0.00143867 484.474576 2.894102 484.474576 6.45865 L 484.474576 178.116155 C 484.474576 181.685928 481.584262 184.576243 478.019715 184.576243 L 6.45941 184.576243 C 2.889637 184.576243 -0.000677874 181.685928 -0.000677874 178.116155 L -0.000677874 6.45865 C -0.000677874 2.894102 2.889637 -0.00143867 6.45941 -0.00143867 Z M 6.45941 -0.00143867 " stroke="#d4af37" stroke-width="10" stroke-opacity="1" stroke-miterlimit="4"/></g></g><g fill="#d4af37" fill-opacity="1"><g transform="translate(16.438239, 61.129935)"><g><path d="M 27.734375 -6.265625 C 27.753906 -6.117188 27.765625 -5.976562 27.765625 -5.84375 C 27.765625 -5.707031 27.765625 -5.566406 27.765625 -5.421875 C 27.765625 -4.347656 27.679688 -3.351562 27.515625 -2.4375 C 27.347656 -1.519531 27.132812 -0.679688 26.875 0.078125 C 26.613281 0.835938 26.332031 1.519531 26.03125 2.125 C 25.726562 2.738281 25.441406 3.273438 25.171875 3.734375 C 24.535156 4.679688 23.703125 5.53125 22.671875 6.28125 C 21.648438 7.03125 20.507812 7.671875 19.25 8.203125 C 17.988281 8.742188 16.65625 9.160156 15.25 9.453125 C 13.851562 9.742188 12.46875 9.890625 11.09375 9.890625 C 9.632812 9.890625 8.238281 9.71875 6.90625 9.375 C 5.570312 9.03125 4.390625 8.484375 3.359375 7.734375 C 2.335938 6.992188 1.519531 6.039062 0.90625 4.875 C 0.300781 3.71875 0 2.320312 0 0.6875 C 0 -0.457031 0.359375 -2.351562 1.078125 -5 C 1.804688 -7.65625 2.910156 -11.019531 4.390625 -15.09375 L 5.265625 -14.765625 C 2.929688 -7.703125 1.765625 -3.816406 1.765625 -3.109375 C 1.765625 -1.648438 2.085938 -0.429688 2.734375 0.546875 C 3.378906 1.523438 4.222656 2.304688 5.265625 2.890625 C 6.316406 3.484375 7.5 3.898438 8.8125 4.140625 C 10.125 4.390625 11.445312 4.515625 12.78125 4.515625 C 13.613281 4.515625 14.507812 4.425781 15.46875 4.25 C 16.4375 4.070312 17.398438 3.800781 18.359375 3.4375 C 19.328125 3.070312 20.25 2.628906 21.125 2.109375 C 22.007812 1.585938 22.789062 0.988281 23.46875 0.3125 C 24.15625 -0.351562 24.703125 -1.09375 25.109375 -1.90625 C 25.515625 -2.726562 25.71875 -3.609375 25.71875 -4.546875 C 25.71875 -14.117188 25.0625 -21.285156 23.75 -26.046875 C 22.394531 -27.078125 21.4375 -27.976562 20.875 -28.75 C 20.3125 -29.53125 20.03125 -30.179688 20.03125 -30.703125 C 20.03125 -32.753906 20.8125 -35.160156 22.375 -37.921875 L 23.109375 -37.734375 C 22.898438 -37.316406 22.703125 -36.867188 22.515625 -36.390625 C 22.328125 -35.921875 22.234375 -35.425781 22.234375 -34.90625 C 22.234375 -34.195312 22.421875 -33.628906 22.796875 -33.203125 C 23.179688 -32.773438 23.675781 -32.40625 24.28125 -32.09375 C 24.894531 -31.78125 25.570312 -31.5 26.3125 -31.25 C 27.0625 -31 27.800781 -30.691406 28.53125 -30.328125 L 27.21875 -25.421875 C 27.03125 -25.453125 26.851562 -25.484375 26.6875 -25.515625 C 26.53125 -25.554688 26.378906 -25.597656 26.234375 -25.640625 C 26.054688 -25.398438 25.894531 -25.125 25.75 -24.8125 C 26.414062 -21.476562 26.90625 -18.742188 27.21875 -16.609375 C 27.53125 -14.472656 27.703125 -12.882812 27.734375 -11.84375 C 27.898438 -11.519531 28.171875 -11.21875 28.546875 -10.9375 C 28.929688 -10.65625 29.398438 -10.410156 29.953125 -10.203125 C 30.503906 -9.992188 31.128906 -9.828125 31.828125 -9.703125 C 32.535156 -9.585938 33.28125 -9.53125 34.0625 -9.53125 L 34.875 -9.53125 L 34.875 -4.09375 L 32.96875 -4.09375 C 32.65625 -4.09375 32.234375 -4.144531 31.703125 -4.25 C 31.179688 -4.351562 30.648438 -4.5 30.109375 -4.6875 C 29.578125 -4.882812 29.085938 -5.113281 28.640625 -5.375 C 28.203125 -5.644531 27.898438 -5.941406 27.734375 -6.265625 Z M 27.734375 -6.265625 "/></g></g></g><g fill="#d4af37" fill-opacity="1"><g transform="translate(50.493663, 61.129935)"><g><path d="M 18.25 -4.09375 L 16.34375 -4.09375 C 12.550781 -4.09375 9.835938 -5.570312 8.203125 -8.53125 C 7.867188 -7.90625 7.476562 -7.320312 7.03125 -6.78125 C 6.59375 -6.238281 6.082031 -5.765625 5.5 -5.359375 C 4.914062 -4.960938 4.257812 -4.648438 3.53125 -4.421875 C 2.8125 -4.203125 2 -4.09375 1.09375 -4.09375 L -0.8125 -4.09375 L -0.8125 -9.53125 L 0 -9.53125 C 1.019531 -9.53125 1.910156 -9.5625 2.671875 -9.625 C 3.429688 -9.6875 4.101562 -9.816406 4.6875 -10.015625 C 5.28125 -10.222656 5.8125 -10.503906 6.28125 -10.859375 C 6.757812 -11.210938 7.21875 -11.675781 7.65625 -12.25 C 8.09375 -12.832031 8.53125 -13.546875 8.96875 -14.390625 C 9.414062 -15.242188 9.914062 -16.25 10.46875 -17.40625 L 11 -17 C 10.75 -16.46875 10.5625 -15.972656 10.4375 -15.515625 C 10.320312 -15.066406 10.265625 -14.632812 10.265625 -14.21875 C 10.265625 -13.4375 10.457031 -12.75 10.84375 -12.15625 C 11.238281 -11.570312 11.769531 -11.082031 12.4375 -10.6875 C 13.101562 -10.300781 13.863281 -10.007812 14.71875 -9.8125 C 15.582031 -9.625 16.488281 -9.53125 17.4375 -9.53125 L 18.25 -9.53125 Z M 9.15625 5.890625 L 6.4375 10.515625 L 1.4375 7.5 L 4.171875 3.109375 Z M 9.15625 5.890625 "/></g></g></g><g fill="#d4af37" fill-opacity="1"><g transform="translate(67.93004, 61.129935)"><g><path d="M 18.25 -4.09375 L 16.34375 -4.09375 C 12.550781 -4.09375 9.835938 -5.570312 8.203125 -8.53125 C 7.867188 -7.90625 7.476562 -7.320312 7.03125 -6.78125 C 6.59375 -6.238281 6.082031 -5.765625 5.5 -5.359375 C 4.914062 -4.960938 4.257812 -4.648438 3.53125 -4.421875 C 2.8125 -4.203125 2 -4.09375 1.09375 -4.09375 L -0.8125 -4.09375 L -0.8125 -9.53125 L 0 -9.53125 C 1.019531 -9.53125 1.910156 -9.5625 2.671875 -9.625 C 3.429688 -9.6875 4.101562 -9.816406 4.6875 -10.015625 C 5.28125 -10.222656 5.8125 -10.503906 6.28125 -10.859375 C 6.757812 -11.210938 7.21875 -11.675781 7.65625 -12.25 C 8.09375 -12.832031 8.53125 -13.546875 8.96875 -14.390625 C 9.414062 -15.242188 9.914062 -16.25 10.46875 -17.40625 L 11 -17 C 10.75 -16.46875 10.5625 -15.972656 10.4375 -15.515625 C 10.320312 -15.066406 10.265625 -14.632812 10.265625 -14.21875 C 10.265625 -13.4375 10.457031 -12.75 10.84375 -12.15625 C 11.238281 -11.570312 11.769531 -11.082031 12.4375 -10.6875 C 13.101562 -10.300781 13.863281 -10.007812 14.71875 -9.8125 C 15.582031 -9.625 16.488281 -9.53125 17.4375 -9.53125 L 18.25 -9.53125 Z M 7.28125 -28.765625 L 4.359375 -24.296875 L -0.796875 -27.40625 L 2.234375 -31.765625 Z M 7.28125 -28.765625 "/></g></g></g><g fill="#d4af37" fill-opacity="1"><g transform="translate(85.366417, 61.129935)"><g><path d="M 36.453125 -4.875 C 34.859375 -4.875 32.578125 -6.03125 29.609375 -8.34375 C 29.378906 -8.03125 28.957031 -7.738281 28.34375 -7.46875 C 27.738281 -7.195312 27.035156 -6.957031 26.234375 -6.75 C 25.429688 -6.539062 24.570312 -6.351562 23.65625 -6.1875 C 22.738281 -6.019531 21.847656 -5.882812 20.984375 -5.78125 C 20.128906 -5.6875 19.332031 -5.609375 18.59375 -5.546875 C 17.851562 -5.492188 17.257812 -5.46875 16.8125 -5.46875 C 15.789062 -5.46875 15.28125 -5.878906 15.28125 -6.703125 C 15.28125 -6.878906 15.289062 -7.015625 15.3125 -7.109375 C 14.875 -6.859375 14.289062 -6.601562 13.5625 -6.34375 C 12.84375 -6.09375 12.046875 -5.859375 11.171875 -5.640625 C 10.296875 -5.421875 9.378906 -5.210938 8.421875 -5.015625 C 7.472656 -4.828125 6.546875 -4.664062 5.640625 -4.53125 C 4.734375 -4.394531 3.882812 -4.285156 3.09375 -4.203125 C 2.300781 -4.128906 1.632812 -4.09375 1.09375 -4.09375 L -0.8125 -4.09375 L -0.8125 -9.53125 L 0 -9.53125 C 4.269531 -9.53125 7.828125 -9.800781 10.671875 -10.34375 C 13.515625 -10.894531 15.757812 -11.722656 17.40625 -12.828125 C 17.988281 -13.242188 18.503906 -13.785156 18.953125 -14.453125 C 19.410156 -15.117188 19.828125 -15.835938 20.203125 -16.609375 C 20.585938 -17.378906 20.9375 -18.160156 21.25 -18.953125 C 21.5625 -19.742188 21.863281 -20.460938 22.15625 -21.109375 L 22.796875 -20.765625 L 19.53125 -11.3125 L 19.8125 -11.03125 C 21.238281 -11.03125 22.476562 -11.054688 23.53125 -11.109375 C 24.59375 -11.171875 25.492188 -11.257812 26.234375 -11.375 C 26.984375 -11.488281 27.59375 -11.628906 28.0625 -11.796875 C 28.53125 -11.972656 28.898438 -12.179688 29.171875 -12.421875 C 30.316406 -13.398438 31.460938 -16.097656 32.609375 -20.515625 L 33.375 -20.25 C 33.125 -19.300781 32.84375 -18.128906 32.53125 -16.734375 C 32.21875 -15.347656 31.878906 -13.71875 31.515625 -11.84375 C 31.722656 -11.5625 32.003906 -11.273438 32.359375 -10.984375 C 32.710938 -10.691406 33.101562 -10.421875 33.53125 -10.171875 C 33.96875 -9.929688 34.421875 -9.734375 34.890625 -9.578125 C 35.367188 -9.421875 35.828125 -9.34375 36.265625 -9.34375 C 36.492188 -9.34375 36.71875 -9.367188 36.9375 -9.421875 C 37.269531 -10.242188 37.4375 -10.960938 37.4375 -11.578125 C 37.4375 -11.898438 37.40625 -12.238281 37.34375 -12.59375 C 37.28125 -12.945312 37.1875 -13.328125 37.0625 -13.734375 C 36.945312 -14.148438 36.8125 -14.601562 36.65625 -15.09375 C 36.5 -15.582031 36.34375 -16.144531 36.1875 -16.78125 C 37.4375 -19.125 38.503906 -20.601562 39.390625 -21.21875 C 39.429688 -20.894531 39.484375 -20.492188 39.546875 -20.015625 C 39.609375 -19.546875 39.671875 -19.039062 39.734375 -18.5 C 39.796875 -17.957031 39.847656 -17.375 39.890625 -16.75 C 39.941406 -16.132812 39.96875 -15.507812 39.96875 -14.875 C 39.96875 -13.925781 39.890625 -13 39.734375 -12.09375 C 39.578125 -11.1875 39.289062 -10.367188 38.875 -9.640625 C 38.5 -8.660156 38.101562 -7.773438 37.6875 -6.984375 C 37.28125 -6.191406 36.867188 -5.488281 36.453125 -4.875 Z M 36.453125 -4.875 "/></g></g></g><g fill="#d4af37" fill-opacity="1"><g transform="translate(128.08554, 61.129935)"><g/></g></g><g fill="#d4af37" fill-opacity="1"><g transform="translate(145.794361, 61.129935)"><g><path d="M 28.53125 -34.40625 L 27.21875 -29.5 C 27.03125 -29.539062 26.851562 -29.578125 26.6875 -29.609375 C 26.53125 -29.648438 26.378906 -29.6875 26.234375 -29.71875 C 26.054688 -29.488281 25.894531 -29.21875 25.75 -28.90625 C 27.113281 -22.019531 27.796875 -16.472656 27.796875 -12.265625 C 27.796875 -8.046875 27.273438 -4.789062 26.234375 -2.5 C 25.640625 -1.21875 24.78125 -0.0664062 23.65625 0.953125 C 22.539062 1.972656 21.28125 2.835938 19.875 3.546875 C 18.46875 4.253906 16.988281 4.796875 15.4375 5.171875 C 13.882812 5.554688 12.378906 5.75 10.921875 5.75 C 9.398438 5.75 7.972656 5.5625 6.640625 5.1875 C 5.316406 4.8125 4.160156 4.238281 3.171875 3.46875 C 2.179688 2.695312 1.40625 1.71875 0.84375 0.53125 C 0.28125 -0.65625 0 -2.054688 0 -3.671875 C 0 -5.890625 1.460938 -11.0625 4.390625 -19.1875 L 5.265625 -18.859375 C 2.929688 -11.785156 1.765625 -7.894531 1.765625 -7.1875 C 1.765625 -5.71875 2.082031 -4.492188 2.71875 -3.515625 C 3.351562 -2.535156 4.1875 -1.75 5.21875 -1.15625 C 6.257812 -0.5625 7.4375 -0.148438 8.75 0.078125 C 10.070312 0.316406 11.414062 0.4375 12.78125 0.4375 C 13.613281 0.4375 14.507812 0.34375 15.46875 0.15625 C 16.4375 -0.0195312 17.398438 -0.289062 18.359375 -0.65625 C 19.328125 -1.019531 20.25 -1.457031 21.125 -1.96875 C 22.007812 -2.488281 22.789062 -3.082031 23.46875 -3.75 C 24.15625 -4.425781 24.703125 -5.171875 25.109375 -5.984375 C 25.515625 -6.804688 25.71875 -7.691406 25.71875 -8.640625 C 25.71875 -18.210938 25.0625 -25.375 23.75 -30.125 C 22.394531 -31.164062 21.4375 -32.070312 20.875 -32.84375 C 20.3125 -33.613281 20.03125 -34.265625 20.03125 -34.796875 C 20.03125 -36.847656 20.8125 -39.253906 22.375 -42.015625 L 23.109375 -41.828125 C 22.898438 -41.398438 22.703125 -40.953125 22.515625 -40.484375 C 22.328125 -40.015625 22.234375 -39.515625 22.234375 -38.984375 C 22.234375 -38.273438 22.421875 -37.707031 22.796875 -37.28125 C 23.179688 -36.851562 23.675781 -36.484375 24.28125 -36.171875 C 24.894531 -35.867188 25.570312 -35.585938 26.3125 -35.328125 C 27.0625 -35.078125 27.800781 -34.769531 28.53125 -34.40625 Z M 28.53125 -34.40625 "/></g></g></g><g fill="#d4af37" fill-opacity="1"><g transform="translate(177.043618, 61.129935)"><g><path d="M -2.78125 -36.8125 C -2.363281 -37.570312 -1.867188 -38.3125 -1.296875 -39.03125 C -0.722656 -39.757812 -0.132812 -40.410156 0.46875 -40.984375 C 1.082031 -41.554688 1.6875 -42.015625 2.28125 -42.359375 C 2.882812 -42.710938 3.414062 -42.890625 3.875 -42.890625 C 4.019531 -42.890625 4.242188 -42.851562 4.546875 -42.78125 C 4.859375 -42.707031 5.210938 -42.609375 5.609375 -42.484375 C 6.015625 -42.367188 6.4375 -42.242188 6.875 -42.109375 C 7.320312 -41.984375 7.753906 -41.863281 8.171875 -41.75 C 8.585938 -41.632812 8.96875 -41.539062 9.3125 -41.46875 C 9.65625 -41.394531 9.929688 -41.359375 10.140625 -41.359375 C 12.148438 -41.359375 14.570312 -42.421875 17.40625 -44.546875 L 17.484375 -43.296875 C 15.378906 -39.765625 12.945312 -38 10.1875 -38 C 9.9375 -38 9.492188 -38.070312 8.859375 -38.21875 C 8.234375 -38.363281 7.582031 -38.523438 6.90625 -38.703125 C 6.226562 -38.890625 5.597656 -39.054688 5.015625 -39.203125 C 4.429688 -39.347656 4.050781 -39.421875 3.875 -39.421875 C 3.414062 -39.421875 2.894531 -39.304688 2.3125 -39.078125 C 1.726562 -38.847656 1.132812 -38.546875 0.53125 -38.171875 C -0.0625 -37.804688 -0.644531 -37.382812 -1.21875 -36.90625 C -1.789062 -36.4375 -2.289062 -35.945312 -2.71875 -35.4375 Z M 8.125 -15.171875 C 8.125 -13.410156 7.875 -11.597656 7.375 -9.734375 C 6.875 -7.878906 6.203125 -5.914062 5.359375 -3.84375 L 4.875 -4.09375 C 5.09375 -5.363281 5.257812 -6.566406 5.375 -7.703125 C 5.5 -8.847656 5.5625 -9.992188 5.5625 -11.140625 C 5.5625 -11.972656 5.523438 -12.816406 5.453125 -13.671875 C 5.390625 -14.523438 5.300781 -15.410156 5.1875 -16.328125 C 5.070312 -17.242188 4.921875 -18.203125 4.734375 -19.203125 C 4.554688 -20.203125 4.347656 -21.273438 4.109375 -22.421875 C 3.179688 -26.867188 2.71875 -30.078125 2.71875 -32.046875 C 2.71875 -32.546875 2.953125 -33.207031 3.421875 -34.03125 C 3.898438 -34.863281 4.519531 -35.878906 5.28125 -37.078125 L 5.53125 -36.75 C 5.488281 -36.351562 5.457031 -35.984375 5.4375 -35.640625 C 5.425781 -35.296875 5.421875 -34.957031 5.421875 -34.625 C 5.421875 -34.007812 5.453125 -33.40625 5.515625 -32.8125 C 5.578125 -32.226562 5.664062 -31.582031 5.78125 -30.875 C 5.90625 -30.164062 6.054688 -29.363281 6.234375 -28.46875 C 6.421875 -27.582031 6.628906 -26.519531 6.859375 -25.28125 C 7.296875 -22.988281 7.613281 -21.015625 7.8125 -19.359375 C 8.019531 -17.710938 8.125 -16.316406 8.125 -15.171875 Z M 8.125 -15.171875 "/></g></g></g><g fill="#d4af37" fill-opacity="1"><g transform="translate(197.258917, 61.129935)"><g/></g></g><g fill="#d4af37" fill-opacity="1"><g transform="translate(214.967749, 61.129935)"><g><path d="M 35.140625 -4.09375 L 33.234375 -4.09375 C 30.910156 -4.09375 28.972656 -4.703125 27.421875 -5.921875 C 25.867188 -7.148438 24.578125 -8.945312 23.546875 -11.3125 C 22.617188 -10.195312 21.53125 -9.164062 20.28125 -8.21875 C 19.039062 -7.28125 17.722656 -6.460938 16.328125 -5.765625 C 14.941406 -5.066406 13.519531 -4.519531 12.0625 -4.125 C 10.613281 -3.738281 9.207031 -3.546875 7.84375 -3.546875 C 2.613281 -3.546875 0 -6.894531 0 -13.59375 C 0 -17.113281 0.9375 -20.851562 2.8125 -24.8125 L 3.15625 -24.40625 C 2.613281 -23.15625 2.175781 -21.890625 1.84375 -20.609375 C 1.519531 -19.328125 1.359375 -18.085938 1.359375 -16.890625 C 1.359375 -15.867188 1.5 -14.914062 1.78125 -14.03125 C 2.0625 -13.144531 2.523438 -12.375 3.171875 -11.71875 C 3.816406 -11.0625 4.660156 -10.539062 5.703125 -10.15625 C 6.753906 -9.78125 8.03125 -9.59375 9.53125 -9.59375 C 14.53125 -9.59375 18.960938 -11.679688 22.828125 -15.859375 L 22.828125 -16.296875 C 22.753906 -19.617188 22.375 -24.578125 21.6875 -31.171875 C 22.070312 -32.441406 22.722656 -33.835938 23.640625 -35.359375 C 23.929688 -35.109375 24.085938 -34.519531 24.109375 -33.59375 C 24.148438 -32.050781 24.207031 -30.363281 24.28125 -28.53125 C 24.363281 -26.707031 24.453125 -24.679688 24.546875 -22.453125 C 24.648438 -20.648438 24.875 -18.960938 25.21875 -17.390625 C 25.570312 -15.816406 26.117188 -14.445312 26.859375 -13.28125 C 27.609375 -12.125 28.585938 -11.207031 29.796875 -10.53125 C 31.003906 -9.863281 32.515625 -9.53125 34.328125 -9.53125 L 35.140625 -9.53125 Z M 35.140625 -4.09375 "/></g></g></g><g fill="#d4af37" fill-opacity="1"><g transform="translate(249.295616, 61.129935)"><g><path d="M 33.515625 -4.09375 L 31.609375 -4.09375 C 31.265625 -4.09375 30.789062 -4.210938 30.1875 -4.453125 C 29.582031 -4.703125 28.921875 -5.078125 28.203125 -5.578125 C 27.492188 -6.078125 26.75 -6.695312 25.96875 -7.4375 C 25.195312 -8.1875 24.476562 -9.054688 23.8125 -10.046875 C 23.84375 -9.972656 23.859375 -9.835938 23.859375 -9.640625 C 23.859375 -9.265625 23.773438 -8.765625 23.609375 -8.140625 C 23.453125 -7.523438 23.253906 -6.910156 23.015625 -6.296875 C 22.785156 -5.691406 22.535156 -5.148438 22.265625 -4.671875 C 22.003906 -4.191406 21.765625 -3.894531 21.546875 -3.78125 L 20.765625 -3.484375 L 20.65625 -3.484375 C 19.75 -3.484375 17.488281 -4.238281 13.875 -5.75 C 12.613281 -6.269531 11.363281 -6.785156 10.125 -7.296875 C 8.894531 -7.804688 7.664062 -8.328125 6.4375 -8.859375 C 4.957031 -7.253906 3.734375 -6.054688 2.765625 -5.265625 C 1.796875 -4.484375 1.238281 -4.09375 1.09375 -4.09375 L -0.8125 -4.09375 L -0.8125 -9.53125 L 0 -9.53125 C 0.675781 -9.53125 1.28125 -9.585938 1.8125 -9.703125 C 2.34375 -9.828125 2.890625 -10.066406 3.453125 -10.421875 C 4.015625 -10.773438 4.628906 -11.273438 5.296875 -11.921875 C 5.960938 -12.578125 6.765625 -13.453125 7.703125 -14.546875 C 7.992188 -14.890625 8.34375 -15.3125 8.75 -15.8125 C 9.164062 -16.3125 9.609375 -16.832031 10.078125 -17.375 C 10.546875 -17.925781 11.035156 -18.46875 11.546875 -19 C 12.054688 -19.539062 12.554688 -20.023438 13.046875 -20.453125 C 13.535156 -20.878906 14.003906 -21.222656 14.453125 -21.484375 C 14.910156 -21.742188 15.320312 -21.875 15.6875 -21.875 C 16.925781 -21.875 18.472656 -20.785156 20.328125 -18.609375 C 21.847656 -17.023438 23.191406 -15.660156 24.359375 -14.515625 C 25.535156 -13.378906 26.601562 -12.441406 27.5625 -11.703125 C 28.53125 -10.960938 29.421875 -10.414062 30.234375 -10.0625 C 31.054688 -9.707031 31.875 -9.53125 32.6875 -9.53125 L 33.515625 -9.53125 Z M 19.96875 -10.8125 C 19.96875 -11.144531 19.878906 -11.53125 19.703125 -11.96875 C 19.535156 -12.414062 19.304688 -12.882812 19.015625 -13.375 C 18.722656 -13.863281 18.390625 -14.347656 18.015625 -14.828125 C 17.648438 -15.316406 17.257812 -15.75 16.84375 -16.125 C 16.4375 -16.507812 16.03125 -16.816406 15.625 -17.046875 C 15.21875 -17.285156 14.832031 -17.40625 14.46875 -17.40625 C 14.269531 -17.40625 13.960938 -17.265625 13.546875 -16.984375 C 13.140625 -16.703125 12.71875 -16.378906 12.28125 -16.015625 C 11.851562 -15.648438 11.453125 -15.28125 11.078125 -14.90625 C 10.703125 -14.539062 10.453125 -14.273438 10.328125 -14.109375 C 12.484375 -12.472656 15.503906 -11.054688 19.390625 -9.859375 C 19.773438 -10.003906 19.96875 -10.320312 19.96875 -10.8125 Z M 19.96875 -10.8125 "/></g></g></g><g fill="#d4af37" fill-opacity="1"><g transform="translate(281.988823, 61.129935)"><g><path d="M 40.046875 -16.890625 L 37.46875 -11.90625 C 36.40625 -12.101562 35.394531 -12.257812 34.4375 -12.375 C 33.488281 -12.5 32.582031 -12.570312 31.71875 -12.59375 C 31.820312 -12.082031 32.035156 -11.632812 32.359375 -11.25 C 32.691406 -10.875 33.222656 -10.554688 33.953125 -10.296875 C 34.691406 -10.046875 35.671875 -9.851562 36.890625 -9.71875 C 38.109375 -9.59375 39.660156 -9.53125 41.546875 -9.53125 L 42.359375 -9.53125 L 42.359375 -4.09375 L 40.453125 -4.09375 C 37.929688 -4.09375 35.929688 -4.304688 34.453125 -4.734375 C 32.972656 -5.171875 31.847656 -5.769531 31.078125 -6.53125 C 30.304688 -7.300781 29.804688 -8.191406 29.578125 -9.203125 C 29.347656 -10.222656 29.234375 -11.316406 29.234375 -12.484375 C 27.597656 -12.316406 26.113281 -11.988281 24.78125 -11.5 C 23.445312 -11.019531 22.148438 -10.472656 20.890625 -9.859375 C 19.640625 -9.242188 18.375 -8.59375 17.09375 -7.90625 C 15.8125 -7.226562 14.40625 -6.609375 12.875 -6.046875 C 11.34375 -5.484375 9.617188 -5.015625 7.703125 -4.640625 C 5.796875 -4.273438 3.59375 -4.09375 1.09375 -4.09375 L -0.8125 -4.09375 L -0.8125 -9.53125 L 0 -9.53125 C 2.289062 -9.601562 4.46875 -9.757812 6.53125 -10 C 8.59375 -10.238281 10.546875 -10.597656 12.390625 -11.078125 C 14.242188 -11.554688 16.015625 -12.175781 17.703125 -12.9375 C 19.398438 -13.695312 21.023438 -14.644531 22.578125 -15.78125 C 22.234375 -15.957031 21.671875 -16.195312 20.890625 -16.5 C 20.109375 -16.8125 19.195312 -17.113281 18.15625 -17.40625 C 17.113281 -17.695312 15.972656 -17.945312 14.734375 -18.15625 C 13.503906 -18.363281 12.257812 -18.46875 11 -18.46875 C 9.863281 -18.46875 8.742188 -18.359375 7.640625 -18.140625 C 6.546875 -17.921875 5.523438 -17.539062 4.578125 -17 C 3.628906 -16.457031 2.789062 -15.726562 2.0625 -14.8125 C 1.34375 -13.894531 0.78125 -12.734375 0.375 -11.328125 L -0.1875 -11.578125 C 0.332031 -13.847656 0.953125 -15.742188 1.671875 -17.265625 C 2.390625 -18.796875 3.203125 -20.019531 4.109375 -20.9375 C 5.015625 -21.851562 6.019531 -22.5 7.125 -22.875 C 8.238281 -23.257812 9.441406 -23.453125 10.734375 -23.453125 C 11.929688 -23.453125 13.210938 -23.316406 14.578125 -23.046875 C 15.941406 -22.773438 17.367188 -22.425781 18.859375 -22 C 20.359375 -21.570312 21.925781 -21.097656 23.5625 -20.578125 C 25.195312 -20.066406 26.898438 -19.5625 28.671875 -19.0625 C 30.441406 -18.570312 32.273438 -18.132812 34.171875 -17.75 C 36.078125 -17.363281 38.035156 -17.078125 40.046875 -16.890625 Z M 40.046875 -16.890625 "/></g></g></g><g fill="#d4af37" fill-opacity="1"><g transform="translate(323.536429, 61.129935)"><g><path d="M 25.671875 -10.78125 C 25.671875 -10.144531 24.6875 -7.929688 22.71875 -4.140625 C 22.488281 -3.898438 22.195312 -3.78125 21.84375 -3.78125 C 20.851562 -3.78125 18.265625 -4.570312 14.078125 -6.15625 C 9.046875 -7.957031 6.5 -8.859375 6.4375 -8.859375 C 5.90625 -7.890625 5.441406 -7.097656 5.046875 -6.484375 C 4.660156 -5.867188 4.273438 -5.382812 3.890625 -5.03125 C 3.515625 -4.675781 3.109375 -4.429688 2.671875 -4.296875 C 2.234375 -4.160156 1.707031 -4.09375 1.09375 -4.09375 L -0.8125 -4.09375 L -0.8125 -9.53125 L 0 -9.53125 C 1.25 -9.53125 2.359375 -9.804688 3.328125 -10.359375 C 4.304688 -10.921875 5.273438 -11.769531 6.234375 -12.90625 C 6.742188 -13.550781 7.257812 -14.242188 7.78125 -14.984375 C 8.3125 -15.722656 8.851562 -16.46875 9.40625 -17.21875 C 9.96875 -17.976562 10.554688 -18.707031 11.171875 -19.40625 C 11.785156 -20.101562 12.429688 -20.71875 13.109375 -21.25 C 13.796875 -21.789062 14.523438 -22.222656 15.296875 -22.546875 C 16.066406 -22.878906 16.898438 -23.046875 17.796875 -23.046875 C 18.265625 -23.046875 18.78125 -22.796875 19.34375 -22.296875 C 19.90625 -21.796875 20.476562 -21.15625 21.0625 -20.375 C 21.644531 -19.59375 22.210938 -18.722656 22.765625 -17.765625 C 23.316406 -16.816406 23.804688 -15.890625 24.234375 -14.984375 C 24.660156 -14.078125 25.003906 -13.242188 25.265625 -12.484375 C 25.535156 -11.734375 25.671875 -11.164062 25.671875 -10.78125 Z M 20.765625 -11.53125 C 20.503906 -12.144531 20.15625 -12.773438 19.71875 -13.421875 C 19.289062 -14.066406 18.796875 -14.664062 18.234375 -15.21875 C 17.679688 -15.769531 17.082031 -16.242188 16.4375 -16.640625 C 15.789062 -17.046875 15.132812 -17.300781 14.46875 -17.40625 C 14.28125 -17.382812 13.972656 -17.234375 13.546875 -16.953125 C 13.117188 -16.671875 12.675781 -16.347656 12.21875 -15.984375 C 11.757812 -15.628906 11.332031 -15.28125 10.9375 -14.9375 C 10.550781 -14.601562 10.300781 -14.363281 10.1875 -14.21875 C 12.351562 -12.945312 15.695312 -11.554688 20.21875 -10.046875 C 20.519531 -10.410156 20.703125 -10.90625 20.765625 -11.53125 Z M 20.765625 -11.53125 "/></g></g></g><g fill="#d4af37" fill-opacity="1"><g transform="translate(18.621982, 113.916954)"><g><path d="M 19.390625 -4.484375 L 19.390625 -20.0625 L 12.359375 0 L 9.109375 0 L 2.609375 -18.65625 L 2.609375 -4.484375 C 2.609375 -2.804688 2.773438 -1.679688 3.109375 -1.109375 C 3.453125 -0.535156 3.96875 -0.257812 4.65625 -0.28125 L 4.65625 0 L 0 0 L 0 -0.28125 C 0.675781 -0.257812 1.179688 -0.535156 1.515625 -1.109375 C 1.859375 -1.679688 2.03125 -2.804688 2.03125 -4.484375 L 2.03125 -17.265625 C 2.03125 -18.960938 1.859375 -20.101562 1.515625 -20.6875 C 1.179688 -21.269531 0.675781 -21.539062 0 -21.5 L 0 -21.78125 L 4.75 -21.78125 L 12.03125 -0.796875 L 19.390625 -21.78125 L 24.453125 -21.78125 L 24.453125 -21.5 C 23.773438 -21.539062 23.265625 -21.269531 22.921875 -20.6875 C 22.585938 -20.101562 22.421875 -18.960938 22.421875 -17.265625 L 22.421875 -4.484375 C 22.421875 -2.804688 22.585938 -1.679688 22.921875 -1.109375 C 23.265625 -0.535156 23.773438 -0.257812 24.453125 -0.28125 L 24.453125 0 L 17.359375 0 L 17.359375 -0.28125 C 18.035156 -0.257812 18.539062 -0.535156 18.875 -1.109375 C 19.21875 -1.679688 19.390625 -2.804688 19.390625 -4.484375 Z M 19.390625 -4.484375 "/></g></g></g><g fill="#d4af37" fill-opacity="1"><g transform="translate(44.002724, 113.916954)"><g><path d="M 9.078125 -17.296875 C 7.890625 -17.296875 6.769531 -17.070312 5.71875 -16.625 C 4.664062 -16.175781 3.742188 -15.550781 2.953125 -14.75 C 2.171875 -13.957031 1.554688 -13.035156 1.109375 -11.984375 C 0.671875 -10.929688 0.453125 -9.8125 0.453125 -8.625 C 0.453125 -7.4375 0.671875 -6.316406 1.109375 -5.265625 C 1.554688 -4.210938 2.171875 -3.296875 2.953125 -2.515625 C 3.742188 -1.734375 4.664062 -1.117188 5.71875 -0.671875 C 6.769531 -0.222656 7.890625 0 9.078125 0 C 10.265625 0 11.382812 -0.222656 12.4375 -0.671875 C 13.488281 -1.117188 14.410156 -1.734375 15.203125 -2.515625 C 16.003906 -3.296875 16.625 -4.210938 17.0625 -5.265625 C 17.507812 -6.316406 17.734375 -7.4375 17.734375 -8.625 C 17.734375 -9.8125 17.507812 -10.929688 17.0625 -11.984375 C 16.625 -13.035156 16.003906 -13.957031 15.203125 -14.75 C 14.410156 -15.550781 13.488281 -16.175781 12.4375 -16.625 C 11.382812 -17.070312 10.265625 -17.296875 9.078125 -17.296875 Z M 6.40625 -16.234375 C 7.414062 -16.597656 8.453125 -16.582031 9.515625 -16.1875 C 10.578125 -15.800781 11.554688 -15.117188 12.453125 -14.140625 C 13.359375 -13.160156 14.054688 -11.972656 14.546875 -10.578125 C 15.035156 -9.171875 15.238281 -7.800781 15.15625 -6.46875 C 15.070312 -5.144531 14.738281 -3.992188 14.15625 -3.015625 C 13.570312 -2.046875 12.78125 -1.378906 11.78125 -1.015625 C 10.78125 -0.679688 9.742188 -0.707031 8.671875 -1.09375 C 7.597656 -1.488281 6.613281 -2.175781 5.71875 -3.15625 C 4.832031 -4.132812 4.132812 -5.320312 3.625 -6.71875 C 3.132812 -8.125 2.925781 -9.488281 3 -10.8125 C 3.082031 -12.132812 3.421875 -13.285156 4.015625 -14.265625 C 4.609375 -15.242188 5.40625 -15.898438 6.40625 -16.234375 Z M 6.40625 -16.234375 "/></g></g></g><g fill="#d4af37" fill-opacity="1"><g transform="translate(63.046243, 113.916954)"><g><path d="M 19.875 -1.3125 C 19.632812 -0.84375 19.300781 -0.503906 18.875 -0.296875 C 18.457031 -0.0976562 18.015625 0 17.546875 0 C 16.523438 0 15.742188 -0.3125 15.203125 -0.9375 C 14.660156 -1.5625 14.234375 -2.300781 13.921875 -3.15625 C 13.554688 -4.132812 13.269531 -5.210938 13.0625 -6.390625 C 12.863281 -7.566406 12.675781 -8.742188 12.5 -9.921875 C 12.320312 -11.097656 12.09375 -12.164062 11.8125 -13.125 C 11.34375 -14.820312 10.617188 -15.722656 9.640625 -15.828125 C 8.671875 -15.929688 7.613281 -15.421875 6.46875 -14.296875 C 6.164062 -14.023438 5.878906 -13.722656 5.609375 -13.390625 C 5.347656 -13.054688 5.113281 -12.742188 4.90625 -12.453125 L 4.90625 -4.484375 C 4.90625 -2.804688 5.070312 -1.679688 5.40625 -1.109375 C 5.75 -0.535156 6.257812 -0.257812 6.9375 -0.28125 L 6.9375 0 L 0 0 L 0 -0.28125 C 0.675781 -0.257812 1.179688 -0.535156 1.515625 -1.109375 C 1.859375 -1.679688 2.03125 -2.804688 2.03125 -4.484375 L 2.03125 -17.296875 C 2.03125 -18.992188 1.859375 -20.128906 1.515625 -20.703125 C 1.179688 -21.273438 0.675781 -21.539062 0 -21.5 L 0 -21.78125 C 0.9375 -21.78125 1.878906 -21.972656 2.828125 -22.359375 C 3.785156 -22.753906 4.476562 -23.257812 4.90625 -23.875 L 4.90625 -13.46875 C 5.394531 -14.101562 5.925781 -14.710938 6.5 -15.296875 C 7.070312 -15.878906 7.703125 -16.359375 8.390625 -16.734375 C 9.078125 -17.109375 9.835938 -17.296875 10.671875 -17.296875 C 11.535156 -17.296875 12.234375 -17.097656 12.765625 -16.703125 C 13.296875 -16.304688 13.710938 -15.800781 14.015625 -15.1875 C 14.328125 -14.570312 14.566406 -13.898438 14.734375 -13.171875 C 14.910156 -12.453125 15.0625 -11.773438 15.1875 -11.140625 C 15.425781 -10.054688 15.640625 -8.953125 15.828125 -7.828125 C 16.015625 -6.703125 16.238281 -5.644531 16.5 -4.65625 C 16.769531 -3.675781 17.128906 -2.847656 17.578125 -2.171875 C 17.785156 -1.867188 18.082031 -1.597656 18.46875 -1.359375 C 18.851562 -1.128906 19.242188 -1.175781 19.640625 -1.5 Z M 19.875 -1.3125 "/></g></g></g><g fill="#d4af37" fill-opacity="1"><g transform="translate(83.650183, 113.916954)"><g><path d="M 18.125 -1.3125 C 17.882812 -0.84375 17.554688 -0.503906 17.140625 -0.296875 C 16.734375 -0.0976562 16.296875 0 15.828125 0 C 14.785156 0 14 -0.3125 13.46875 -0.9375 C 12.9375 -1.5625 12.515625 -2.300781 12.203125 -3.15625 C 11.984375 -3.769531 11.789062 -4.4375 11.625 -5.15625 C 11.457031 -5.875 11.304688 -6.609375 11.171875 -7.359375 C 11.085938 -6.109375 10.820312 -4.921875 10.375 -3.796875 C 9.9375 -2.671875 9.265625 -1.753906 8.359375 -1.046875 C 7.453125 -0.347656 6.25 0 4.75 0 C 3.363281 0 2.203125 -0.378906 1.265625 -1.140625 C 0.335938 -1.910156 -0.0820312 -3.035156 0 -4.515625 C 0.0625 -5.472656 0.316406 -6.289062 0.765625 -6.96875 C 1.210938 -7.65625 1.769531 -8.253906 2.4375 -8.765625 C 3.101562 -9.285156 3.796875 -9.769531 4.515625 -10.21875 C 5.242188 -10.664062 5.910156 -11.132812 6.515625 -11.625 C 7.117188 -12.113281 7.578125 -12.675781 7.890625 -13.3125 C 8.359375 -14.195312 8.472656 -14.925781 8.234375 -15.5 C 8.003906 -16.082031 7.566406 -16.453125 6.921875 -16.609375 C 6.273438 -16.765625 5.550781 -16.660156 4.75 -16.296875 C 4 -15.960938 3.285156 -15.484375 2.609375 -14.859375 C 1.929688 -14.234375 1.410156 -13.675781 1.046875 -13.1875 L 0.03125 -15.859375 C 0.96875 -16.304688 2.015625 -16.65625 3.171875 -16.90625 C 4.328125 -17.164062 5.519531 -17.296875 6.75 -17.296875 C 8.320312 -17.296875 9.539062 -17.078125 10.40625 -16.640625 C 11.28125 -16.203125 11.941406 -15.523438 12.390625 -14.609375 C 12.835938 -13.703125 13.195312 -12.546875 13.46875 -11.140625 C 13.695312 -10.054688 13.90625 -8.953125 14.09375 -7.828125 C 14.289062 -6.703125 14.519531 -5.644531 14.78125 -4.65625 C 15.050781 -3.675781 15.410156 -2.847656 15.859375 -2.171875 C 16.046875 -1.867188 16.335938 -1.597656 16.734375 -1.359375 C 17.128906 -1.128906 17.515625 -1.175781 17.890625 -1.5 Z M 10.34375 -12.03125 C 10.195312 -12.601562 10.015625 -13.15625 9.796875 -13.6875 C 9.585938 -14.21875 9.328125 -14.6875 9.015625 -15.09375 C 9.140625 -14.5625 9.144531 -14.003906 9.03125 -13.421875 C 8.914062 -12.835938 8.726562 -12.320312 8.46875 -11.875 C 8.125 -11.257812 7.679688 -10.707031 7.140625 -10.21875 C 6.609375 -9.726562 6.054688 -9.25 5.484375 -8.78125 C 4.910156 -8.320312 4.394531 -7.8125 3.9375 -7.25 C 3.476562 -6.6875 3.164062 -6.019531 3 -5.25 C 2.84375 -4.46875 2.90625 -3.71875 3.1875 -3 C 3.476562 -2.289062 4.082031 -1.820312 5 -1.59375 C 5.78125 -1.40625 6.507812 -1.457031 7.1875 -1.75 C 7.875 -2.050781 8.460938 -2.492188 8.953125 -3.078125 C 9.441406 -3.660156 9.800781 -4.28125 10.03125 -4.9375 C 10.394531 -5.976562 10.601562 -7.160156 10.65625 -8.484375 C 10.707031 -9.816406 10.601562 -11 10.34375 -12.03125 Z M 10.34375 -12.03125 "/></g></g></g><g fill="#d4af37" fill-opacity="1"><g transform="translate(102.502627, 113.916954)"><g><path d="M 19.875 -1.3125 C 19.632812 -0.84375 19.300781 -0.503906 18.875 -0.296875 C 18.457031 -0.0976562 18.015625 0 17.546875 0 C 16.585938 0 15.859375 -0.257812 15.359375 -0.78125 C 14.859375 -1.300781 14.460938 -1.929688 14.171875 -2.671875 C 13.703125 -3.835938 13.351562 -5.0625 13.125 -6.34375 C 12.90625 -7.632812 12.691406 -8.925781 12.484375 -10.21875 C 12.273438 -11.519531 11.9375 -12.753906 11.46875 -13.921875 C 11.144531 -14.742188 10.726562 -15.28125 10.21875 -15.53125 C 9.707031 -15.789062 9.160156 -15.832031 8.578125 -15.65625 C 7.992188 -15.488281 7.40625 -15.148438 6.8125 -14.640625 C 6.445312 -14.328125 6.097656 -13.972656 5.765625 -13.578125 C 5.441406 -13.191406 5.15625 -12.816406 4.90625 -12.453125 L 4.90625 -4.484375 C 4.90625 -2.804688 5.070312 -1.679688 5.40625 -1.109375 C 5.75 -0.535156 6.257812 -0.257812 6.9375 -0.28125 L 6.9375 0 L 0 0 L 0 -0.28125 C 0.675781 -0.257812 1.179688 -0.535156 1.515625 -1.109375 C 1.859375 -1.679688 2.03125 -2.804688 2.03125 -4.484375 L 2.03125 -10.671875 C 2.03125 -12.367188 1.859375 -13.507812 1.515625 -14.09375 C 1.179688 -14.675781 0.675781 -14.945312 0 -14.90625 L 0 -15.1875 C 0.9375 -15.1875 1.878906 -15.382812 2.828125 -15.78125 C 3.785156 -16.175781 4.476562 -16.679688 4.90625 -17.296875 L 4.90625 -13.46875 C 5.375 -14.101562 5.890625 -14.710938 6.453125 -15.296875 C 7.015625 -15.878906 7.628906 -16.359375 8.296875 -16.734375 C 8.960938 -17.109375 9.675781 -17.296875 10.4375 -17.296875 C 11.1875 -17.296875 11.882812 -17.09375 12.53125 -16.6875 C 13.175781 -16.28125 13.703125 -15.632812 14.109375 -14.75 C 14.273438 -14.363281 14.441406 -13.925781 14.609375 -13.4375 C 15.078125 -14.070312 15.597656 -14.6875 16.171875 -15.28125 C 16.742188 -15.875 17.363281 -16.359375 18.03125 -16.734375 C 18.707031 -17.109375 19.425781 -17.296875 20.1875 -17.296875 C 20.925781 -17.296875 21.617188 -17.09375 22.265625 -16.6875 C 22.921875 -16.28125 23.445312 -15.632812 23.84375 -14.75 C 24.269531 -13.851562 24.601562 -12.832031 24.84375 -11.6875 C 25.09375 -10.539062 25.3125 -9.375 25.5 -8.1875 C 25.695312 -7 25.929688 -5.878906 26.203125 -4.828125 C 26.484375 -3.773438 26.859375 -2.890625 27.328125 -2.171875 C 27.515625 -1.867188 27.800781 -1.597656 28.1875 -1.359375 C 28.582031 -1.128906 28.972656 -1.175781 29.359375 -1.5 L 29.578125 -1.3125 C 29.367188 -0.84375 29.050781 -0.503906 28.625 -0.296875 C 28.195312 -0.0976562 27.753906 0 27.296875 0 C 26.316406 0 25.578125 -0.257812 25.078125 -0.78125 C 24.578125 -1.300781 24.175781 -1.929688 23.875 -2.671875 C 23.414062 -3.835938 23.078125 -5.0625 22.859375 -6.34375 C 22.648438 -7.632812 22.429688 -8.925781 22.203125 -10.21875 C 21.984375 -11.519531 21.640625 -12.753906 21.171875 -13.921875 C 20.859375 -14.742188 20.445312 -15.28125 19.9375 -15.53125 C 19.425781 -15.789062 18.878906 -15.832031 18.296875 -15.65625 C 17.710938 -15.488281 17.132812 -15.148438 16.5625 -14.640625 C 16.21875 -14.367188 15.898438 -14.0625 15.609375 -13.71875 C 15.328125 -13.382812 15.070312 -13.054688 14.84375 -12.734375 C 15.175781 -11.546875 15.441406 -10.285156 15.640625 -8.953125 C 15.847656 -7.628906 16.085938 -6.367188 16.359375 -5.171875 C 16.640625 -3.972656 17.046875 -2.972656 17.578125 -2.171875 C 17.785156 -1.867188 18.082031 -1.597656 18.46875 -1.359375 C 18.851562 -1.128906 19.242188 -1.175781 19.640625 -1.5 Z M 19.875 -1.3125 "/></g></g></g><g fill="#d4af37" fill-opacity="1"><g transform="translate(132.851247, 113.916954)"><g><path d="M 19.875 -1.3125 C 19.632812 -0.84375 19.300781 -0.503906 18.875 -0.296875 C 18.457031 -0.0976562 18.015625 0 17.546875 0 C 16.585938 0 15.859375 -0.257812 15.359375 -0.78125 C 14.859375 -1.300781 14.460938 -1.929688 14.171875 -2.671875 C 13.703125 -3.835938 13.351562 -5.0625 13.125 -6.34375 C 12.90625 -7.632812 12.691406 -8.925781 12.484375 -10.21875 C 12.273438 -11.519531 11.9375 -12.753906 11.46875 -13.921875 C 11.144531 -14.742188 10.726562 -15.28125 10.21875 -15.53125 C 9.707031 -15.789062 9.160156 -15.832031 8.578125 -15.65625 C 7.992188 -15.488281 7.40625 -15.148438 6.8125 -14.640625 C 6.445312 -14.328125 6.097656 -13.972656 5.765625 -13.578125 C 5.441406 -13.191406 5.15625 -12.816406 4.90625 -12.453125 L 4.90625 -4.484375 C 4.90625 -2.804688 5.070312 -1.679688 5.40625 -1.109375 C 5.75 -0.535156 6.257812 -0.257812 6.9375 -0.28125 L 6.9375 0 L 0 0 L 0 -0.28125 C 0.675781 -0.257812 1.179688 -0.535156 1.515625 -1.109375 C 1.859375 -1.679688 2.03125 -2.804688 2.03125 -4.484375 L 2.03125 -10.671875 C 2.03125 -12.367188 1.859375 -13.507812 1.515625 -14.09375 C 1.179688 -14.675781 0.675781 -14.945312 0 -14.90625 L 0 -15.1875 C 0.9375 -15.1875 1.878906 -15.382812 2.828125 -15.78125 C 3.785156 -16.175781 4.476562 -16.679688 4.90625 -17.296875 L 4.90625 -13.46875 C 5.375 -14.101562 5.890625 -14.710938 6.453125 -15.296875 C 7.015625 -15.878906 7.628906 -16.359375 8.296875 -16.734375 C 8.960938 -17.109375 9.675781 -17.296875 10.4375 -17.296875 C 11.1875 -17.296875 11.882812 -17.09375 12.53125 -16.6875 C 13.175781 -16.28125 13.703125 -15.632812 14.109375 -14.75 C 14.273438 -14.363281 14.441406 -13.925781 14.609375 -13.4375 C 15.078125 -14.070312 15.597656 -14.6875 16.171875 -15.28125 C 16.742188 -15.875 17.363281 -16.359375 18.03125 -16.734375 C 18.707031 -17.109375 19.425781 -17.296875 20.1875 -17.296875 C 20.925781 -17.296875 21.617188 -17.09375 22.265625 -16.6875 C 22.921875 -16.28125 23.445312 -15.632812 23.84375 -14.75 C 24.269531 -13.851562 24.601562 -12.832031 24.84375 -11.6875 C 25.09375 -10.539062 25.3125 -9.375 25.5 -8.1875 C 25.695312 -7 25.929688 -5.878906 26.203125 -4.828125 C 26.484375 -3.773438 26.859375 -2.890625 27.328125 -2.171875 C 27.515625 -1.867188 27.800781 -1.597656 28.1875 -1.359375 C 28.582031 -1.128906 28.972656 -1.175781 29.359375 -1.5 L 29.578125 -1.3125 C 29.367188 -0.84375 29.050781 -0.503906 28.625 -0.296875 C 28.195312 -0.0976562 27.753906 0 27.296875 0 C 26.316406 0 25.578125 -0.257812 25.078125 -0.78125 C 24.578125 -1.300781 24.175781 -1.929688 23.875 -2.671875 C 23.414062 -3.835938 23.078125 -5.0625 22.859375 -6.34375 C 22.648438 -7.632812 22.429688 -8.925781 22.203125 -10.21875 C 21.984375 -11.519531 21.640625 -12.753906 21.171875 -13.921875 C 20.859375 -14.742188 20.445312 -15.28125 19.9375 -15.53125 C 19.425781 -15.789062 18.878906 -15.832031 18.296875 -15.65625 C 17.710938 -15.488281 17.132812 -15.148438 16.5625 -14.640625 C 16.21875 -14.367188 15.898438 -14.0625 15.609375 -13.71875 C 15.328125 -13.382812 15.070312 -13.054688 14.84375 -12.734375 C 15.175781 -11.546875 15.441406 -10.285156 15.640625 -8.953125 C 15.847656 -7.628906 16.085938 -6.367188 16.359375 -5.171875 C 16.640625 -3.972656 17.046875 -2.972656 17.578125 -2.171875 C 17.785156 -1.867188 18.082031 -1.597656 18.46875 -1.359375 C 18.851562 -1.128906 19.242188 -1.175781 19.640625 -1.5 Z M 19.875 -1.3125 "/></g></g></g><g fill="#d4af37" fill-opacity="1"><g transform="translate(163.199867, 113.916954)"><g><path d="M 9.078125 -17.296875 C 10.554688 -17.296875 11.820312 -16.941406 12.875 -16.234375 C 13.925781 -15.535156 14.734375 -14.644531 15.296875 -13.5625 C 15.859375 -12.476562 16.128906 -11.363281 16.109375 -10.21875 C 13.941406 -10.21875 11.753906 -10.21875 9.546875 -10.21875 C 7.335938 -10.21875 5.15625 -10.21875 3 -10.21875 C 3.019531 -9.84375 3.050781 -9.460938 3.09375 -9.078125 C 3.132812 -8.691406 3.195312 -8.296875 3.28125 -7.890625 C 3.570312 -6.679688 4.070312 -5.546875 4.78125 -4.484375 C 5.5 -3.421875 6.398438 -2.585938 7.484375 -1.984375 C 8.566406 -1.378906 9.785156 -1.15625 11.140625 -1.3125 C 12.421875 -1.457031 13.617188 -1.976562 14.734375 -2.875 C 15.847656 -3.78125 16.671875 -5.007812 17.203125 -6.5625 L 17.484375 -6.5625 C 17.160156 -5.3125 16.59375 -4.191406 15.78125 -3.203125 C 14.976562 -2.210938 14 -1.429688 12.84375 -0.859375 C 11.6875 -0.285156 10.429688 0 9.078125 0 C 7.890625 0 6.773438 -0.222656 5.734375 -0.671875 C 4.691406 -1.117188 3.769531 -1.734375 2.96875 -2.515625 C 2.175781 -3.296875 1.554688 -4.210938 1.109375 -5.265625 C 0.671875 -6.316406 0.453125 -7.4375 0.453125 -8.625 C 0.453125 -9.8125 0.671875 -10.929688 1.109375 -11.984375 C 1.554688 -13.035156 2.175781 -13.957031 2.96875 -14.75 C 3.769531 -15.550781 4.691406 -16.175781 5.734375 -16.625 C 6.773438 -17.070312 7.890625 -17.296875 9.078125 -17.296875 Z M 13.25 -10.796875 C 13.101562 -12.234375 12.660156 -13.414062 11.921875 -14.34375 C 11.191406 -15.269531 10.328125 -15.898438 9.328125 -16.234375 C 8.328125 -16.578125 7.351562 -16.578125 6.40625 -16.234375 C 5.40625 -15.898438 4.609375 -15.234375 4.015625 -14.234375 C 3.421875 -13.234375 3.09375 -12.085938 3.03125 -10.796875 Z M 13.25 -10.796875 "/></g></g></g><g fill="#d4af37" fill-opacity="1"><g transform="translate(181.765705, 113.916954)"><g><path d="M 14.421875 -4.484375 C 14.421875 -2.804688 14.585938 -1.679688 14.921875 -1.109375 C 15.265625 -0.535156 15.78125 -0.257812 16.46875 -0.28125 L 16.46875 0 L 9.328125 0 C 7.359375 0 5.675781 -0.429688 4.28125 -1.296875 C 2.894531 -2.171875 1.832031 -3.363281 1.09375 -4.875 C 0.363281 -6.382812 0 -8.09375 0 -10 C 0 -11.1875 0.21875 -12.335938 0.65625 -13.453125 C 1.09375 -14.566406 1.75 -15.484375 2.625 -16.203125 C 3.507812 -16.929688 4.609375 -17.296875 5.921875 -17.296875 C 7.171875 -17.296875 8.273438 -16.925781 9.234375 -16.1875 C 10.191406 -15.457031 10.96875 -14.582031 11.5625 -13.5625 L 11.5625 -17.296875 C 11.5625 -18.992188 11.390625 -20.128906 11.046875 -20.703125 C 10.710938 -21.273438 10.203125 -21.539062 9.515625 -21.5 L 9.515625 -21.78125 C 10.453125 -21.78125 11.394531 -21.972656 12.34375 -22.359375 C 13.300781 -22.753906 13.992188 -23.257812 14.421875 -23.875 Z M 11.5625 -4.484375 L 11.5625 -12.296875 C 10.863281 -13.796875 10.023438 -14.816406 9.046875 -15.359375 C 8.066406 -15.898438 7.113281 -16.035156 6.1875 -15.765625 C 5.269531 -15.503906 4.503906 -14.921875 3.890625 -14.015625 C 3.441406 -13.335938 3.140625 -12.5625 2.984375 -11.6875 C 2.835938 -10.8125 2.8125 -9.90625 2.90625 -8.96875 C 3.007812 -8.039062 3.195312 -7.144531 3.46875 -6.28125 C 3.75 -5.425781 4.078125 -4.660156 4.453125 -3.984375 C 5.023438 -3.003906 5.75 -2.191406 6.625 -1.546875 C 7.507812 -0.898438 8.347656 -0.578125 9.140625 -0.578125 C 9.921875 -0.578125 10.519531 -0.878906 10.9375 -1.484375 C 11.351562 -2.085938 11.5625 -3.085938 11.5625 -4.484375 Z M 11.5625 -4.484375 "/></g></g></g><g fill="#d4af37" fill-opacity="1"><g transform="translate(199.025889, 113.916954)"><g/></g></g><g fill="#d4af37" fill-opacity="1"><g transform="translate(208.356579, 113.916954)"><g><path d="M 12.234375 -21.78125 L 19.234375 -1.78125 C 19.398438 -1.289062 19.628906 -0.90625 19.921875 -0.625 C 20.222656 -0.351562 20.660156 -0.226562 21.234375 -0.25 L 21.234375 0 L 14.8125 0 L 14.8125 -0.25 C 15.363281 -0.226562 15.75 -0.34375 15.96875 -0.59375 C 16.1875 -0.851562 16.210938 -1.25 16.046875 -1.78125 L 13.890625 -7.921875 C 13.335938 -6.753906 12.601562 -6.023438 11.6875 -5.734375 C 10.769531 -5.453125 9.675781 -5.515625 8.40625 -5.921875 C 8.082031 -6.023438 7.703125 -6.148438 7.265625 -6.296875 C 6.835938 -6.453125 6.394531 -6.554688 5.9375 -6.609375 C 5.476562 -6.660156 5.0625 -6.601562 4.6875 -6.4375 C 4.320312 -6.28125 4.054688 -5.945312 3.890625 -5.4375 L 3.21875 -3.65625 C 3.132812 -3.382812 3.09375 -3.125 3.09375 -2.875 C 3.09375 -2.632812 3.132812 -2.378906 3.21875 -2.109375 C 3.257812 -1.992188 3.300781 -1.875 3.34375 -1.75 C 3.382812 -1.625 3.414062 -1.507812 3.4375 -1.40625 C 3.601562 -0.9375 3.84375 -0.617188 4.15625 -0.453125 C 4.46875 -0.296875 4.875 -0.226562 5.375 -0.25 L 5.375 0 C 4.59375 0 3.6875 0 2.65625 0 C 1.625 0 0.738281 0 0 0 L 0 -0.25 C 0.507812 -0.226562 0.921875 -0.34375 1.234375 -0.59375 C 1.554688 -0.851562 1.789062 -1.207031 1.9375 -1.65625 L 9.015625 -21.78125 Z M 13.6875 -8.5625 L 9.328125 -20.953125 L 4.625 -7.609375 C 5.164062 -8.328125 5.835938 -8.753906 6.640625 -8.890625 C 7.453125 -9.035156 8.378906 -8.925781 9.421875 -8.5625 C 9.910156 -8.414062 10.410156 -8.253906 10.921875 -8.078125 C 11.429688 -7.910156 11.925781 -7.84375 12.40625 -7.875 C 12.882812 -7.90625 13.3125 -8.132812 13.6875 -8.5625 Z M 13.6875 -8.5625 "/></g></g></g><g fill="#d4af37" fill-opacity="1"><g transform="translate(230.55279, 113.916954)"><g><path d="M 4.90625 -4.484375 C 4.90625 -2.804688 5.070312 -1.679688 5.40625 -1.109375 C 5.75 -0.535156 6.257812 -0.257812 6.9375 -0.28125 L 6.9375 0 L 0 0 L 0 -0.28125 C 0.675781 -0.257812 1.179688 -0.535156 1.515625 -1.109375 C 1.859375 -1.679688 2.03125 -2.804688 2.03125 -4.484375 L 2.03125 -17.296875 C 2.03125 -18.992188 1.859375 -20.128906 1.515625 -20.703125 C 1.179688 -21.273438 0.675781 -21.539062 0 -21.5 L 0 -21.78125 C 0.9375 -21.78125 1.878906 -21.972656 2.828125 -22.359375 C 3.785156 -22.753906 4.476562 -23.257812 4.90625 -23.875 Z M 4.90625 -4.484375 "/></g></g></g><g fill="#d4af37" fill-opacity="1"><g transform="translate(238.291209, 113.916954)"><g/></g></g><g fill="#d4af37" fill-opacity="1"><g transform="translate(247.62191, 113.916954)"><g><path d="M 0.28125 -8.78125 C 0.6875 -7.15625 1.335938 -5.71875 2.234375 -4.46875 C 3.140625 -3.226562 4.21875 -2.269531 5.46875 -1.59375 C 6.726562 -0.914062 8.054688 -0.578125 9.453125 -0.578125 C 10.066406 -0.578125 10.722656 -0.648438 11.421875 -0.796875 C 12.128906 -0.941406 12.789062 -1.171875 13.40625 -1.484375 C 14.019531 -1.804688 14.535156 -2.238281 14.953125 -2.78125 C 15.367188 -3.320312 15.585938 -4 15.609375 -4.8125 C 15.648438 -5.757812 15.382812 -6.609375 14.8125 -7.359375 C 14.238281 -8.117188 13.546875 -8.679688 12.734375 -9.046875 C 11.847656 -9.472656 10.894531 -9.789062 9.875 -10 C 8.851562 -10.207031 7.820312 -10.421875 6.78125 -10.640625 C 5.738281 -10.867188 4.742188 -11.1875 3.796875 -11.59375 C 3.210938 -11.84375 2.628906 -12.160156 2.046875 -12.546875 C 1.460938 -12.929688 0.972656 -13.40625 0.578125 -13.96875 C 0.191406 -14.53125 0 -15.179688 0 -15.921875 C 0 -16.660156 0.175781 -17.332031 0.53125 -17.9375 C 0.894531 -18.539062 1.351562 -19.070312 1.90625 -19.53125 C 2.457031 -19.988281 3.007812 -20.359375 3.5625 -20.640625 C 4.351562 -21.015625 5.1875 -21.296875 6.0625 -21.484375 C 6.945312 -21.679688 7.84375 -21.78125 8.75 -21.78125 C 10.382812 -21.78125 11.976562 -21.523438 13.53125 -21.015625 C 15.082031 -20.503906 16.429688 -19.78125 17.578125 -18.84375 L 16.40625 -15.765625 C 15.34375 -17.316406 14.300781 -18.535156 13.28125 -19.421875 C 12.257812 -20.316406 11.0625 -20.867188 9.6875 -21.078125 C 8.625 -21.242188 7.546875 -21.207031 6.453125 -20.96875 C 5.359375 -20.726562 4.40625 -20.203125 3.59375 -19.390625 C 2.8125 -18.566406 2.507812 -17.710938 2.6875 -16.828125 C 2.875 -15.953125 3.519531 -15.210938 4.625 -14.609375 C 5.488281 -14.171875 6.441406 -13.828125 7.484375 -13.578125 C 8.523438 -13.335938 9.585938 -13.101562 10.671875 -12.875 C 11.753906 -12.65625 12.769531 -12.359375 13.71875 -11.984375 C 14.675781 -11.617188 15.492188 -11.070312 16.171875 -10.34375 C 16.765625 -9.707031 17.164062 -8.9375 17.375 -8.03125 C 17.59375 -7.132812 17.628906 -6.21875 17.484375 -5.28125 C 17.335938 -4.351562 17.007812 -3.535156 16.5 -2.828125 C 15.988281 -2.128906 15.332031 -1.570312 14.53125 -1.15625 C 13.738281 -0.75 12.890625 -0.453125 11.984375 -0.265625 C 11.085938 -0.0859375 10.191406 0 9.296875 0 C 7.554688 0 5.890625 -0.273438 4.296875 -0.828125 C 2.703125 -1.378906 1.269531 -2.21875 0 -3.34375 L 0 -8.78125 Z M 0.28125 -8.78125 "/></g></g></g><g fill="#d4af37" fill-opacity="1"><g transform="translate(266.187747, 113.916954)"><g><path d="M 2.03125 -10.671875 C 2.03125 -12.367188 1.859375 -13.507812 1.515625 -14.09375 C 1.179688 -14.675781 0.675781 -14.945312 0 -14.90625 L 0 -15.1875 C 0.9375 -15.1875 1.878906 -15.382812 2.828125 -15.78125 C 3.785156 -16.175781 4.476562 -16.679688 4.90625 -17.296875 L 4.90625 -4.328125 C 4.90625 -3.367188 5.113281 -2.675781 5.53125 -2.25 C 5.957031 -1.832031 6.492188 -1.613281 7.140625 -1.59375 C 7.773438 -1.59375 8.414062 -1.742188 9.0625 -2.046875 C 9.707031 -2.359375 10.332031 -2.738281 10.9375 -3.1875 C 11.539062 -3.632812 12.078125 -4.054688 12.546875 -4.453125 L 12.546875 -10.671875 C 12.546875 -12.367188 12.375 -13.507812 12.03125 -14.09375 C 11.695312 -14.675781 11.191406 -14.945312 10.515625 -14.90625 L 10.515625 -15.1875 C 11.441406 -15.1875 12.378906 -15.382812 13.328125 -15.78125 C 14.273438 -16.175781 14.957031 -16.679688 15.375 -17.296875 L 15.40625 -4.140625 C 15.425781 -2.585938 15.609375 -1.550781 15.953125 -1.03125 C 16.296875 -0.507812 16.796875 -0.257812 17.453125 -0.28125 L 17.453125 0 L 14.359375 0 C 13.640625 0 13.15625 -0.195312 12.90625 -0.59375 C 12.664062 -1 12.546875 -1.523438 12.546875 -2.171875 L 12.546875 -3.65625 C 11.890625 -3.039062 11.132812 -2.453125 10.28125 -1.890625 C 9.4375 -1.328125 8.570312 -0.867188 7.6875 -0.515625 C 6.8125 -0.171875 5.976562 0 5.1875 0 C 4.039062 0 3.226562 -0.351562 2.75 -1.0625 C 2.269531 -1.78125 2.03125 -2.65625 2.03125 -3.6875 Z M 2.03125 -10.671875 "/></g></g></g><g fill="#d4af37" fill-opacity="1"><g transform="translate(284.466977, 113.916954)"><g><path d="M 19.875 -1.3125 C 19.632812 -0.84375 19.300781 -0.503906 18.875 -0.296875 C 18.457031 -0.0976562 18.015625 0 17.546875 0 C 16.585938 0 15.859375 -0.257812 15.359375 -0.78125 C 14.859375 -1.300781 14.460938 -1.929688 14.171875 -2.671875 C 13.703125 -3.835938 13.351562 -5.0625 13.125 -6.34375 C 12.90625 -7.632812 12.691406 -8.925781 12.484375 -10.21875 C 12.273438 -11.519531 11.9375 -12.753906 11.46875 -13.921875 C 11.144531 -14.742188 10.726562 -15.28125 10.21875 -15.53125 C 9.707031 -15.789062 9.160156 -15.832031 8.578125 -15.65625 C 7.992188 -15.488281 7.40625 -15.148438 6.8125 -14.640625 C 6.445312 -14.328125 6.097656 -13.972656 5.765625 -13.578125 C 5.441406 -13.191406 5.15625 -12.816406 4.90625 -12.453125 L 4.90625 -4.484375 C 4.90625 -2.804688 5.070312 -1.679688 5.40625 -1.109375 C 5.75 -0.535156 6.257812 -0.257812 6.9375 -0.28125 L 6.9375 0 L 0 0 L 0 -0.28125 C 0.675781 -0.257812 1.179688 -0.535156 1.515625 -1.109375 C 1.859375 -1.679688 2.03125 -2.804688 2.03125 -4.484375 L 2.03125 -10.671875 C 2.03125 -12.367188 1.859375 -13.507812 1.515625 -14.09375 C 1.179688 -14.675781 0.675781 -14.945312 0 -14.90625 L 0 -15.1875 C 0.9375 -15.1875 1.878906 -15.382812 2.828125 -15.78125 C 3.785156 -16.175781 4.476562 -16.679688 4.90625 -17.296875 L 4.90625 -13.46875 C 5.375 -14.101562 5.890625 -14.710938 6.453125 -15.296875 C 7.015625 -15.878906 7.628906 -16.359375 8.296875 -16.734375 C 8.960938 -17.109375 9.675781 -17.296875 10.4375 -17.296875 C 11.1875 -17.296875 11.882812 -17.09375 12.53125 -16.6875 C 13.175781 -16.28125 13.703125 -15.632812 14.109375 -14.75 C 14.535156 -13.851562 14.867188 -12.832031 15.109375 -11.6875 C 15.347656 -10.539062 15.5625 -9.375 15.75 -8.1875 C 15.945312 -7 16.179688 -5.878906 16.453125 -4.828125 C 16.734375 -3.773438 17.109375 -2.890625 17.578125 -2.171875 C 17.785156 -1.867188 18.082031 -1.597656 18.46875 -1.359375 C 18.851562 -1.128906 19.242188 -1.175781 19.640625 -1.5 Z M 19.875 -1.3125 "/></g></g></g><g fill="#d4af37" fill-opacity="1"><g transform="translate(305.166471, 113.916954)"><g><path d="M 4.90625 -4.484375 C 4.90625 -3.929688 4.953125 -3.347656 5.046875 -2.734375 C 5.140625 -2.117188 5.351562 -1.601562 5.6875 -1.1875 C 6.03125 -0.78125 6.566406 -0.578125 7.296875 -0.578125 C 8.421875 -0.578125 9.375 -0.898438 10.15625 -1.546875 C 10.945312 -2.191406 11.59375 -3.019531 12.09375 -4.03125 C 12.601562 -5.039062 12.976562 -6.097656 13.21875 -7.203125 C 13.46875 -8.304688 13.601562 -9.3125 13.625 -10.21875 C 13.625 -10.9375 13.539062 -11.710938 13.375 -12.546875 C 13.207031 -13.390625 12.898438 -14.132812 12.453125 -14.78125 C 12.003906 -15.4375 11.359375 -15.828125 10.515625 -15.953125 C 9.703125 -16.097656 8.953125 -16 8.265625 -15.65625 C 7.578125 -15.320312 6.953125 -14.867188 6.390625 -14.296875 C 5.828125 -13.722656 5.332031 -13.128906 4.90625 -12.515625 Z M 0 0 L 0 -0.28125 C 0.695312 -0.257812 1.207031 -0.535156 1.53125 -1.109375 C 1.863281 -1.679688 2.03125 -2.804688 2.03125 -4.484375 L 2.03125 -17.296875 C 2.03125 -18.972656 1.863281 -20.101562 1.53125 -20.6875 C 1.207031 -21.269531 0.695312 -21.539062 0 -21.5 L 0 -21.78125 C 0.957031 -21.78125 1.894531 -21.96875 2.8125 -22.34375 C 3.738281 -22.726562 4.4375 -23.238281 4.90625 -23.875 L 4.90625 -13.5 C 5.664062 -14.5625 6.59375 -15.457031 7.6875 -16.1875 C 8.78125 -16.925781 10 -17.296875 11.34375 -17.296875 C 12.488281 -17.296875 13.441406 -16.976562 14.203125 -16.34375 C 14.960938 -15.71875 15.539062 -14.890625 15.9375 -13.859375 C 16.332031 -12.835938 16.53125 -11.722656 16.53125 -10.515625 C 16.53125 -9.273438 16.34375 -8.035156 15.96875 -6.796875 C 15.59375 -5.554688 15.035156 -4.421875 14.296875 -3.390625 C 13.554688 -2.359375 12.644531 -1.535156 11.5625 -0.921875 C 10.476562 -0.304688 9.222656 0 7.796875 0 Z M 0 0 "/></g></g></g><g fill="#d4af37" fill-opacity="1"><g transform="translate(323.732308, 113.916954)"><g><path d="M 2.03125 -10.671875 C 2.03125 -12.367188 1.859375 -13.507812 1.515625 -14.09375 C 1.179688 -14.675781 0.675781 -14.945312 0 -14.90625 L 0 -15.1875 C 0.9375 -15.1875 1.878906 -15.382812 2.828125 -15.78125 C 3.785156 -16.175781 4.476562 -16.679688 4.90625 -17.296875 L 4.90625 -4.328125 C 4.90625 -3.367188 5.113281 -2.675781 5.53125 -2.25 C 5.957031 -1.832031 6.492188 -1.613281 7.140625 -1.59375 C 7.773438 -1.59375 8.414062 -1.742188 9.0625 -2.046875 C 9.707031 -2.359375 10.332031 -2.738281 10.9375 -3.1875 C 11.539062 -3.632812 12.078125 -4.054688 12.546875 -4.453125 L 12.546875 -10.671875 C 12.546875 -12.367188 12.375 -13.507812 12.03125 -14.09375 C 11.695312 -14.675781 11.191406 -14.945312 10.515625 -14.90625 L 10.515625 -15.1875 C 11.441406 -15.1875 12.378906 -15.382812 13.328125 -15.78125 C 14.273438 -16.175781 14.957031 -16.679688 15.375 -17.296875 L 15.40625 -4.140625 C 15.425781 -2.585938 15.609375 -1.550781 15.953125 -1.03125 C 16.296875 -0.507812 16.796875 -0.257812 17.453125 -0.28125 L 17.453125 0 L 14.359375 0 C 13.640625 0 13.15625 -0.195312 12.90625 -0.59375 C 12.664062 -1 12.546875 -1.523438 12.546875 -2.171875 L 12.546875 -3.65625 C 11.890625 -3.039062 11.132812 -2.453125 10.28125 -1.890625 C 9.4375 -1.328125 8.570312 -0.867188 7.6875 -0.515625 C 6.8125 -0.171875 5.976562 0 5.1875 0 C 4.039062 0 3.226562 -0.351562 2.75 -1.0625 C 2.269531 -1.78125 2.03125 -2.65625 2.03125 -3.6875 Z M 2.03125 -10.671875 "/></g></g></g><g fill="#d4af37" fill-opacity="1"><g transform="translate(342.011538, 113.916954)"><g><path d="M 4.90625 -4.484375 C 4.90625 -2.804688 5.070312 -1.679688 5.40625 -1.109375 C 5.75 -0.535156 6.257812 -0.257812 6.9375 -0.28125 L 6.9375 0 L 0 0 L 0 -0.28125 C 0.675781 -0.257812 1.179688 -0.535156 1.515625 -1.109375 C 1.859375 -1.679688 2.03125 -2.804688 2.03125 -4.484375 L 2.03125 -17.296875 C 2.03125 -18.992188 1.859375 -20.128906 1.515625 -20.703125 C 1.179688 -21.273438 0.675781 -21.539062 0 -21.5 L 0 -21.78125 C 0.9375 -21.78125 1.878906 -21.972656 2.828125 -22.359375 C 3.785156 -22.753906 4.476562 -23.257812 4.90625 -23.875 Z M 4.90625 -4.484375 "/></g></g></g></svg>